Patient4_TMGait_0pt4_01_left_41_EMG.mot
version=1
nRows=16
nColumns=33
inDegrees=no
endheader
time	1LAddLong	2LGlutMax	3LGlutMed	4LIliopsoas	5LSemiMemb	6LBicFemLong	7LRecFem	8LVastMed	9LVastLat	10LGasMed	11LTibAnt	12lTibPost	13LPeroneusLong	14LSol	15LExtDigLong	16LFlexDigLong	17RAddLong	18RGlutMax	19RGlutMed	20RIliopsoas	21RSemiMemb	22RBicFemLong	23RRecFem	24RVastMed	25RVastLat	26RGasMed	27RTibAnt	28RTibPost	29RPeroneusLong	30RSol	31RExtDigLong	32RFlexDigLong
51.977	0.003967	-0.4509	-0.24155	0.003967	-0.009613	0.04837	-0.085754	0.011139	-0.002899	-0.057373	0.02594	-0.09903	-0.047455	-0.21759	0.027161	0.14252	-0.019226	0.19119	-0.22995	-0.18295	0.029449	0.006409	0.43549	0.075226	-0.020752	0.015869	-0.10162	-0.001373	0.000153	0.080566	0	-0.014954
51.978	0.00946	-0.41077	-0.20981	0.005646	-0.002747	0.03418	-0.15945	0.014343	0.070801	-0.086365	0.036011	-0.059967	-0.048523	-0.11261	0.11231	-0.11688	-0.032959	0.1828	-0.18234	-0.20203	0.047913	0.014496	0.42801	0.032501	-0.014954	0.009766	-0.23972	-0.003815	-0.008392	0.20035	-0.002899	-0.015106
51.979	0.014801	-0.3157	-0.099792	0.011292	-0.005798	-0.018768	-0.15808	-0.00473	0.086517	-0.1442	0.14114	0.001831	-0.017395	-0.13031	0.22324	-0.23331	-0.011902	0.17181	-0.15915	-0.17014	0.040588	0.007324	0.46768	0.023346	-0.016937	0.00946	-0.13229	-0.005798	0.015411	0.27817	-0.002747	-0.007935
51.98	0.01236	-0.25955	-0.098267	0.011139	0.002899	-0.093689	-0.16754	-0.005798	-0.042725	-0.19669	0.14328	0.11078	0.030518	-0.10773	0.23575	-0.17792	-0.016327	0.084076	-0.17868	-0.14053	0.02121	-0.025482	0.46524	-0.043182	-0.009003	0	-0.001373	-0.005493	-0.010986	0.30731	0.000916	-0.014648
51.981	0.005493	-0.28	-0.13367	0.001526	-0.015869	-0.02243	-0.16525	-0.01709	-0.1059	-0.12909	0.18951	0.034332	0.003204	-0.006714	0.08194	-0.13534	0.028839	0.11108	-0.086517	-0.061493	-0.012665	-0.06073	0.48141	-0.00473	-0.005493	-0.000916	-0.030365	-0.003967	0.01358	0.28946	-0.002441	-0.016479
51.982	-0.001221	-0.32196	-0.20386	-0.007935	-0.020752	-0.038147	-0.18448	-0.013428	-0.17578	-0.078278	0.10361	-0.02243	-0.092468	0.036316	0.2803	-0.11856	0.072937	0.10223	-0.17929	-0.003662	-0.039063	-0.046692	0.4277	-0.063019	-0.010681	0.002441	-0.19348	-0.005188	0.15579	0.1828	-0.001373	-0.014343
51.983	0.007629	-0.24384	-0.20477	-0.002289	0.000916	-0.072479	-0.2095	0.006409	-0.15625	-0.054932	0.16007	0.018921	-0.18478	-0.083771	0.39093	-0.081482	0.086212	0.1413	-0.22217	-0.064545	-0.033875	-0.041199	0.44327	-0.089722	-0.007629	0.005493	-0.1506	-0.001068	-0.028229	0.13321	-0.002594	-0.015564
51.984	0.008545	-0.13519	-0.2562	0.000153	0.004578	-0.058594	-0.21118	0.00473	-0.11154	-0.057983	0.02121	-0.031738	-0.097504	0.066528	0.21881	-0.058746	0.046844	0.097198	-0.22537	-0.039978	-0.032501	-0.024261	0.45303	-0.062103	-0.00885	0.006561	0.41382	0.000458	-0.32379	0.039063	-0.000916	-0.02533
51.985	-0.006714	-0.014191	-0.18906	0.003662	-0.007019	0.008087	-0.26672	0.00412	-0.084534	-0.07019	-0.20813	-0.002899	0.069427	0.13794	-0.28854	-0.04837	0.059052	0.14603	-0.17578	0.030212	-0.019226	0.028839	0.4425	-0.058136	-0.015564	0.006256	0.95429	-0.004578	-0.23331	-0.030212	-0.001526	-0.024872
51.986	-0.000305	0.0737	-0.078278	0.013275	-0.035248	0.043945	-0.31616	0.012665	-0.086212	-0.068512	-0.13565	-0.027618	0.096588	0.27634	-0.3624	-0.049286	0.069427	0.18341	-0.14999	0.1358	-0.01358	0.055389	0.46738	-0.059967	-0.018005	0.011292	1.2466	-0.01236	-0.011597	-0.069733	-0.002289	-0.030518
51.987	-0.012207	0.079346	0.058746	0.025024	-0.015259	0.019379	-0.32547	0.023956	-0.10483	-0.065613	-0.19516	-0.007935	0.051727	0.36133	1.2437	-0.018768	0.037079	0.16922	-0.10239	0.17761	-0.02655	0.031586	0.4657	-0.068817	-0.002899	0.010223	0.56152	-0.001984	0.10422	-0.057831	-0.003204	-0.020142
51.988	-0.004272	0.1268	0.006409	0.015869	-0.058594	-0.018463	-0.42343	0.023193	-0.072632	-0.083008	-0.48813	0.017242	-0.010986	0.25391	-0.25391	-0.004578	0.023193	0.23773	-0.036621	0.11337	-0.023804	-0.007477	0.4921	-0.05722	-0.016022	0.011292	-0.32242	-0.005188	0.14664	-0.038452	-0.003662	-0.023651
51.989	-0.013123	0.14114	-0.016022	-0.031281	-0.071106	-0.073547	-0.55161	0.022736	0.034485	-0.012665	-0.21027	-0.003204	-0.091553	0.15869	-0.17944	-0.027618	0.014801	0.17166	0.06134	0.007935	-0.0383	-0.012512	0.42374	-0.026093	-0.008392	0.008698	-0.73776	-0.009308	0.05722	-0.028992	-0.001526	-0.015564
51.99	0.005951	0.10208	-0.022125	0.012054	-0.063324	-0.11231	-0.53329	0.008545	0.14694	-0.023651	0.077515	-0.045776	-0.078583	0.14191	-0.55145	-0.020294	0.052338	0.10071	0.055237	-0.020142	-0.036163	0.017548	0.38406	0.026855	-0.015717	-0.000763	-0.5127	-0.006866	-0.076904	-0.021515	0.001526	-0.020142
51.991	0.007019	0.088806	-0.013428	0.008698	-0.036774	-0.038452	-0.43396	-0.007324	0.19959	-0.04776	0.097809	0.14877	0.005035	0.071106	-0.69488	-0.026398	0.049133	0.15442	-0.16708	0.055084	-0.019531	0.029755	0.38452	0.092316	-0.002136	0.005646	-0.11856	-0.006104	0.014343	-0.070038	-0.001373	-0.019379
51.992	0.014496	0.076599	-0.029602	0.014801	-0.017395	0.03479	-0.41809	-0.009003	0.15198	-0.037842	-0.076904	0.052338	-0.010529	-0.092316	-1.0869	-0.040131	0.06424	0.14542	-0.26291	0.025482	-0.024109	0.039368	0.35858	0.10803	0.001221	0.01236	-0.027008	-0.007019	0.056305	-0.12268	-0.00351	-0.017242
